<?xml version="1.0" standalone="no"?>
<!DOCTYPE svg PUBLIC "-//W3C//DTD SVG 20010904//EN"
 "http://www.w3.org/TR/2001/REC-SVG-20010904/DTD/svg10.dtd">
<svg version="1.0" xmlns="http://www.w3.org/2000/svg"
 width="2000.000000pt" height="2000.000000pt" viewBox="0 0 2000.000000 2000.000000"
 preserveAspectRatio="xMidYMid meet">

<g transform="translate(0.000000,2000.000000) scale(0.100000,-0.100000)"
fill="#000000" stroke="none">
<path d="M2050 19993 c-25 -2 -92 -10 -150 -19 -1009 -149 -1791 -973 -1889
-1989 -8 -75 -11 -1181 -10 -3545 1 -3758 -3 -3501 60 -3685 161 -470 618
-780 1109 -752 491 28 902 373 1023 857 l21 85 6 2945 6 2945 22 80 c93 343
303 603 607 750 128 62 222 90 355 105 67 8 2091 10 6855 8 l6760 -3 105 -28
c227 -60 443 -197 590 -374 114 -137 181 -274 237 -483 16 -61 18 -251 23
-3010 l5 -2945 27 -98 c57 -207 162 -382 318 -530 322 -306 780 -389 1193
-217 177 74 380 242 486 402 55 83 114 206 140 293 52 175 49 -35 48 3725 l-2
3495 -22 120 c-110 595 -400 1076 -859 1423 -290 220 -621 360 -1012 429 -91
17 -585 18 -8052 19 -4375 0 -7975 -1 -8000 -3z"/>
<path d="M9900 14528 c-186 -16 -352 -76 -525 -191 -71 -47 -4168 -4135 -4246
-4237 -71 -92 -154 -266 -185 -385 -35 -136 -43 -333 -20 -460 65 -349 279
-641 584 -798 365 -188 781 -164 1129 65 62 41 295 268 1165 1137 l1088 1085
3 -4904 2 -4905 23 -80 c61 -217 141 -361 278 -505 427 -447 1116 -467 1563
-45 166 157 274 348 333 590 9 39 13 1151 18 4946 l5 4897 480 -475 c264 -261
752 -746 1085 -1077 350 -349 632 -622 670 -648 383 -268 881 -274 1265 -15
229 155 382 376 458 660 18 70 21 108 21 257 0 157 -3 185 -27 275 -32 120
-117 295 -186 385 -75 99 -4185 4200 -4251 4243 -226 146 -468 208 -730 185z"/>
</g>
</svg>
